HIERARCHY
ROOT Hips
{
    OFFSET 0.0 0.0 0.0
    CHANNELS 6 Xposition Yposition Zposition Zrotation Xrotation Yrotation
    JOINT Spine
    {
        OFFSET 0.0 5.0 0.0
        CHANNELS 3 Zrotation Xrotation Yrotation
        JOINT Chest
        {
            OFFSET 0.0 5.0 0.0
            CHANNELS 3 Zrotation Xrotation Yrotation
            JOINT Neck
            {
                OFFSET 0.0 8.0 0.0
                CHANNELS 3 Zrotation Xrotation Yrotation
                JOINT Head
                {
                    OFFSET 0.0 5.0 0.0
                    CHANNELS 3 Zrotation Xrotation Yrotation
                    End Site
                    {
                        OFFSET 0.0 3.0 0.0
                    }
                }
            }
            JOINT LeftShoulder
            {
                OFFSET -5.0 0.0 0.0
                CHANNELS 3 Zrotation Xrotation Yrotation
                JOINT LeftArm
                {
                    OFFSET 0.0 -10.0 0.0
                    CHANNELS 3 Zrotation Xrotation Yrotation
                    JOINT LeftForeArm
                    {
                        OFFSET 0.0 -10.0 0.0
                        CHANNELS 3 Zrotation Xrotation Yrotation
                        End Site
                        {
                            OFFSET 0.0 -3.0 0.0
                        }
                    }
                }
            }
        }
    }
}

MOTION
Frames: 29
Frame Time: 0.033333
960.000000 445.000000 105.262714 0.000000 0.000000 0.000000 0.000000 0.000000 0.000000 23.025492 19.677424 0.000000 180.000000 -2.826980 0.000000 21.801409 -8.355009 -0.000000 158.198591 -5.433822 30.000000 15.945396 3.439486 0.000000 18.000000 -0.260017 0.000000
1691.525230 140.756605 117.257873 0.000000 0.000000 0.000000 0.000000 0.000000 0.000000 -163.376529 1.510143 4.973798 16.623471 4.697041 4.973798 -171.853121 -3.773949 3.759997 99.744051 17.380369 29.763441 -171.126653 -4.115728 -3.759997 0.673538 0.406900 0.313953
1636.048050 128.802021 102.750913 0.000000 0.000000 0.000000 0.000000 0.000000 0.000000 157.904128 -1.722428 9.635073 -22.095872 -4.383971 9.635073 -171.936471 -3.583923 7.460697 -143.675701 6.868398 29.057495 -173.500805 -4.535806 -7.460697 0.570999 0.461847 0.626666
1578.156967 80.474526 118.809495 0.000000 0.000000 0.000000 0.000000 0.000000 0.000000 -139.519796 7.833183 13.690942 40.480204 -6.681201 13.690942 -174.507724 -3.926472 11.043737 119.111399 -18.515236 27.893295 -173.607258 -3.563074 -11.043737 0.461920 0.407644 0.936907
960.418757 444.998421 129.626834 0.000000 0.000000 0.000000 0.000000 0.000000 0.000000 25.077893 24.276435 16.886559 180.000000 -19.241389 16.886559 23.861935 0.614161 14.452610 156.138065 -4.889405 26.289200 17.903699 -5.727418 -14.452610 18.000000 -0.334979 1.243449
960.523360 444.997533 112.723494 0.000000 0.000000 0.000000 0.000000 0.000000 0.000000 25.638906 8.821750 19.021130 180.000000 -10.742833 19.021130 24.425035 12.056481 17.633558 155.574965 -9.171395 24.270510 18.452907 5.233627 -17.633558 18.000000 0.536823 1.545085
960.627905 444.996447 138.296833 0.000000 0.000000 0.000000 0.000000 0.000000 0.000000 26.219073 -13.570067 19.960535 180.000000 18.381638 19.960535 25.006291 -9.908078 20.536413 154.993709 -2.221327 21.869059 19.024920 5.266938 -20.536413 18.000000 0.507331 1.840623
1126.242828 420.359820 122.426054 0.000000 0.000000 0.000000 0.000000 0.000000 0.000000 31.410514 -3.010348 19.645745 -148.589486 9.436048 19.645745 32.280463 -3.251780 23.115397 -131.603972 0.748011 19.122720 45.585331 2.578302 -23.115397 -13.449727 0.095775 2.128896
1257.895088 650.549197 157.743738 0.000000 0.000000 0.000000 0.000000 0.000000 0.000000 25.073180 17.900162 18.096541 -154.926820 -9.782305 18.096541 46.260945 -1.594413 25.329838 -154.651428 -5.993209 16.074804 27.339487 5.736650 -25.329838 -13.619892 -0.265622 2.408768
960.941083 444.992008 139.095454 0.000000 0.000000 0.000000 0.000000 0.000000 0.000000 28.072001 -40.320453 15.410265 180.000000 4.093444 15.410265 26.849221 8.722556 27.144812 153.150779 4.899823 12.773379 20.864045 4.468985 -27.144812 18.000000 -0.371293 2.679134
1163.815842 547.748709 143.195515 0.000000 0.000000 0.000000 0.000000 0.000000 0.000000 117.162728 -7.997516 11.755705 -62.837272 10.236795 11.755705 102.363764 0.489600 28.531695 -47.376450 1.200206 9.270510 104.768601 5.026268 -28.531695 -6.003489 -0.102077 2.938926
961.149372 444.988063 141.403764 0.000000 0.000000 0.000000 0.000000 0.000000 0.000000 29.395983 23.841695 7.362491 180.000000 -6.684434 7.362491 28.146217 -8.853462 29.468618 151.853783 10.671092 5.621439 22.170006 -22.530229 -29.468618 18.000000 -0.559489 3.187120
1136.717377 590.104480 171.606893 0.000000 0.000000 0.000000 0.000000 0.000000 0.000000 115.752126 8.197716 2.506665 -64.247874 -5.848908 2.506665 73.638146 -2.045628 29.940802 -21.842452 -1.985333 1.883716 75.369282 -4.325720 -29.940802 -6.767207 0.425810 3.422736
1163.079758 634.077559 134.895920 0.000000 0.000000 0.000000 0.000000 0.000000 0.000000 132.174340 -0.564680 -2.506665 -47.825660 -1.650528 -2.506665 94.255711 5.872020 29.940802 -149.364979 -6.401490 -1.883716 30.021641 5.437051 -29.940802 -5.096180 0.768868 3.644843
961.460830 444.980668 138.406784 0.000000 0.000000 0.000000 0.000000 0.000000 0.000000 31.497152 -3.537882 -7.362491 180.000000 15.066960 -7.362491 30.152455 2.292278 29.468618 149.847545 13.489629 -5.621439 24.175589 -8.129403 -29.468618 18.000000 1.633783 3.852566
1097.449951 565.089898 155.399674 0.000000 0.000000 0.000000 0.000000 0.000000 0.000000 -119.219568 2.746563 -11.755705 60.780432 -10.766242 -11.755705 -150.180642 -5.833135 28.531695 48.804955 0.590599 -9.270510 -149.874178 -6.653899 -28.531695 2.713854 0.596511 4.045085
1114.140244 528.302071 137.931565 0.000000 0.000000 0.000000 0.000000 0.000000 0.000000 -142.671523 2.670386 -15.410265 37.328477 4.799047 -15.410265 -177.395681 -2.092090 27.144812 34.687329 -2.447158 -12.773379 161.894167 7.064943 -27.144812 -0.910956 -0.248939 4.221640
1116.433640 479.728639 162.924096 0.000000 0.000000 0.000000 0.000000 0.000000 0.000000 -102.267481 3.068538 -18.096541 77.732519 -1.754898 -18.096541 -163.695626 1.912638 25.329838 38.575767 -2.563904 -16.074804 -176.001122 2.034374 -25.329838 0.706594 -0.172488 4.381533
1135.931282 466.493965 139.303601 0.000000 0.000000 0.000000 0.000000 0.000000 0.000000 -112.868406 9.577863 -19.645745 67.131594 -3.230289 -19.645745 -159.517862 -2.364708 23.115397 36.204678 -1.129498 -19.122720 -154.426613 -6.013742 -23.115397 2.428729 0.607655 4.524135
1141.618767 467.420679 152.946171 0.000000 0.000000 0.000000 0.000000 0.000000 0.000000 -123.086385 -8.467837 -19.960535 56.913615 -3.208337 -19.960535 -154.885724 -2.551183 20.536413 36.481623 -2.726690 -21.869059 -153.965441 -5.547117 -20.536413 2.446728 0.522342 4.648882
1150.647926 469.370956 139.284793 0.000000 0.000000 0.000000 0.000000 0.000000 0.000000 -43.953779 32.702816 -19.021130 136.046221 -7.786167 -19.021130 -154.327268 -7.113305 17.633558 60.745168 -3.107842 -24.270510 -153.350642 -6.645952 -17.633558 2.386216 0.636241 4.755283
1151.529922 496.420240 153.029319 0.000000 0.000000 0.000000 0.000000 0.000000 0.000000 -116.362129 17.832765 -16.886559 63.637871 -11.139541 -16.886559 -149.081043 1.563278 14.452610 35.941860 -2.156378 -26.289200 -156.847177 0.447654 -14.452610 2.056513 0.038854 4.842916
1148.402367 515.713574 130.734562 0.000000 0.000000 0.000000 0.000000 0.000000 0.000000 -118.252650 -5.474876 -13.690942 61.747350 -10.159339 -13.690942 -138.082896 0.332739 11.043737 -156.312677 -7.474060 -27.893295 21.649626 10.278097 -11.043737 2.962417 -0.020702 4.911436
1175.363617 533.368646 145.680171 0.000000 0.000000 0.000000 0.000000 0.000000 0.000000 -95.476638 -22.304177 -9.635073 84.523362 24.285507 -9.635073 -113.907461 -6.259578 7.460697 -155.995907 -5.865479 -29.057495 12.512064 8.612338 -7.460697 -16.748794 -0.861234 4.960574
1199.533310 485.991104 130.833601 0.000000 0.000000 0.000000 0.000000 0.000000 0.000000 -100.003195 -10.875191 -4.973798 79.996805 12.033363 -4.973798 -86.083188 -6.477084 3.759997 38.843754 3.980363 -29.763441 -106.539452 -0.414872 -3.759997 6.197806 -0.219763 4.990134
962.588190 444.938442 132.772124 0.000000 0.000000 0.000000 0.000000 0.000000 0.000000 39.579754 10.475786 -0.000000 180.000000 -18.906211 -0.000000 36.680773 10.236308 0.000000 143.319227 -5.387512 -30.000000 29.388385 3.665136 -0.000000 18.000000 0.359487 5.000000
1142.094727 445.716287 120.331641 0.000000 0.000000 0.000000 0.000000 0.000000 0.000000 -140.228454 -35.210285 4.973798 39.771546 40.511097 4.973798 -156.118008 -6.459924 -3.759997 3.479189 5.944701 -29.763441 -158.005660 -5.575310 3.759997 2.150019 0.570278 4.990134
1164.005928 424.847746 117.311135 0.000000 0.000000 0.000000 0.000000 0.000000 0.000000 -84.241076 38.030853 9.635073 95.758924 20.415868 9.635073 -156.181584 -6.238124 -7.460697 166.928360 -0.260359 -29.057495 -154.947270 -6.163584 7.460697 2.644196 0.659773 4.960574
1124.208755 418.286655 121.246074 0.000000 0.000000 0.000000 0.000000 0.000000 0.000000 -117.427077 24.260995 13.690942 62.572923 20.536825 13.690942 -155.943063 -6.541861 -11.043737 14.023837 -10.031646 -27.893295 -157.382674 -5.340557 11.043737 2.188130 0.499431 4.911436
